<?xml version="1.0" encoding="utf-8"?>
<!-- Generator: Adobe Illustrator 12.0.0, SVG Export Plug-In . SVG Version: 6.00 Build 51448)  -->
<!DOCTYPE svg PUBLIC "-//W3C//DTD SVG 1.1//EN" "http://www.w3.org/Graphics/SVG/1.1/DTD/svg11.dtd" [
	<!ENTITY ns_svg "http://www.w3.org/2000/svg">
	<!ENTITY ns_xlink "http://www.w3.org/1999/xlink">
]>
<svg  version="1.1" id="Layer_1" xmlns="&ns_svg;" xmlns:xlink="&ns_xlink;" width="972" height="372" viewBox="0 0 972 372"
	 overflow="visible" enable-background="new 0 0 972 372" xml:space="preserve">
<polygon fill="#FFFFFF" points="0,0 972,0 972,372 0,372 0,0 "/>
<path fill-rule="evenodd" clip-rule="evenodd" fill="none" stroke="#000000" stroke-width="23" stroke-linejoin="round" stroke-miterlimit="3.863693" d="
	M492,228h12c12,0,60-12,60-12c48-12,60-12,60-12h162c0,0,48,0,60-48l3-12"/>
<path fill-rule="evenodd" clip-rule="evenodd" fill="none" stroke="#000000" stroke-width="23" stroke-linejoin="round" stroke-miterlimit="3.863693" d="
	M480,144h-12c-12,0-60,12-60,12c-48,12-60,12-60,12H186c0,0-48,0-60,48l-3,12"/>
<path fill="#FFFFFF" d="M486,186"/>
<g>
	
		<path fill-rule="evenodd" clip-rule="evenodd" fill="none" stroke="#000000" stroke-width="23" stroke-linejoin="round" stroke-miterlimit="3.863693" d="
		M540,222c-36,6-36,42-36,42v108"/>
	
		<path fill-rule="evenodd" clip-rule="evenodd" fill="none" stroke="#FFFFFF" stroke-linejoin="round" stroke-miterlimit="3.863693" stroke-dasharray="4 4" d="
		M540,222c-36,6-36,42-36,42v108"/>
</g>
<path fill-rule="evenodd" clip-rule="evenodd" fill="none" stroke="#FFFFFF" stroke-linejoin="round" stroke-miterlimit="3.863693" stroke-dasharray="4 4" d="
	M492,228h12c12,0,60-12,60-12c48-12,60-12,60-12h162c0,0,48,0,60-48l3-12"/>
<g>
	
		<path fill-rule="evenodd" clip-rule="evenodd" fill="none" stroke="#000000" stroke-width="23" stroke-linejoin="round" stroke-miterlimit="3.863693" d="
		M708,168h-90c-150,0-150,96-150,96v108"/>
	
		<path fill-rule="evenodd" clip-rule="evenodd" fill="none" stroke="#FFFFFF" stroke-linejoin="round" stroke-miterlimit="3.863693" stroke-dasharray="4 4" d="
		M708,168h-90c-150,0-150,96-150,96v108"/>
</g>
<path fill-rule="evenodd" clip-rule="evenodd" fill="none" stroke="#000000" stroke-width="23" stroke-linejoin="round" stroke-miterlimit="3.863693" d="
	M276,204h-12c-12,0-60,12-60,12c-48,12-60,12-60,12h-12"/>
<g>
	
		<path fill-rule="evenodd" clip-rule="evenodd" fill="none" stroke="#000000" stroke-width="23" stroke-linejoin="round" stroke-miterlimit="3.863693" d="
		M264,204h90c150,0,150-96,150-96V0"/>
	
		<path fill-rule="evenodd" clip-rule="evenodd" fill="none" stroke="#FFFFFF" stroke-linejoin="round" stroke-miterlimit="3.863693" stroke-dasharray="4 4" d="
		M264,204h90c150,0,150-96,150-96V0"/>
</g>
<g>
	
		<path fill-rule="evenodd" clip-rule="evenodd" fill="none" stroke="#000000" stroke-width="23" stroke-linejoin="round" stroke-miterlimit="3.863693" d="
		M432,150c36-6,36-42,36-42V0"/>
	
		<path fill-rule="evenodd" clip-rule="evenodd" fill="none" stroke="#FFFFFF" stroke-linejoin="round" stroke-miterlimit="3.863693" stroke-dasharray="4 4" d="
		M432,150c36-6,36-42,36-42V0"/>
</g>
<path fill-rule="evenodd" clip-rule="evenodd" fill="none" stroke="#FFFFFF" stroke-linejoin="round" stroke-miterlimit="3.863693" stroke-dasharray="4 4" d="
	M480,144h-12c-12,0-60,12-60,12c-48,12-60,12-60,12H186c0,0-48,0-60,48l-3,12"/>
<line fill-rule="evenodd" clip-rule="evenodd" fill="none" stroke="#000000" stroke-width="23" stroke-linejoin="round" stroke-miterlimit="3.863693" x1="0" y1="228" x2="972" y2="228"/>
<path fill-rule="evenodd" clip-rule="evenodd" fill="none" stroke="#000000" stroke-width="11" stroke-linejoin="round" stroke-miterlimit="3.863693" d="
	M462,78c0,60-60,60-60,60"/>
<path fill-rule="evenodd" clip-rule="evenodd" fill="none" stroke="#000000" stroke-width="11" stroke-linejoin="round" stroke-miterlimit="3.863693" d="
	M510,78c0,60,60,60,60,60"/>
<line fill-rule="evenodd" clip-rule="evenodd" fill="none" stroke="#000000" stroke-width="23" stroke-linejoin="round" stroke-miterlimit="3.863693" x1="0" y1="144" x2="972" y2="144"/>
<line fill-rule="evenodd" clip-rule="evenodd" fill="none" stroke="#FFFFFF" stroke-linejoin="round" stroke-miterlimit="3.863693" stroke-dasharray="4 4" x1="0" y1="144" x2="372" y2="144"/>
<line fill-rule="evenodd" clip-rule="evenodd" fill="none" stroke="#000000" stroke-width="3" stroke-linejoin="round" stroke-miterlimit="3.863693" x1="456" y1="132" x2="468" y2="132"/>
<line fill-rule="evenodd" clip-rule="evenodd" fill="none" stroke="#FFFFFF" stroke-width="2" stroke-linejoin="round" stroke-miterlimit="3.863693" x1="446" y1="130" x2="476" y2="130"/>
<line fill-rule="evenodd" clip-rule="evenodd" fill="none" stroke="#000000" stroke-width="3" stroke-linejoin="round" stroke-miterlimit="3.863693" x1="480" y1="156" x2="492" y2="156"/>
<line fill-rule="evenodd" clip-rule="evenodd" fill="none" stroke="#FFFFFF" stroke-width="2" stroke-linejoin="round" stroke-miterlimit="3.863693" x1="466" y1="158" x2="502" y2="158"/>
<line fill-rule="evenodd" clip-rule="evenodd" fill="none" stroke="#FFFFFF" stroke-width="2" stroke-linejoin="round" stroke-miterlimit="3.863693" x1="498" y1="168" x2="516" y2="126"/>
<line fill-rule="evenodd" clip-rule="evenodd" fill="none" stroke="#000000" stroke-width="3" stroke-linejoin="round" stroke-miterlimit="3.863693" x1="120" y1="216" x2="132" y2="216"/>
<line fill-rule="evenodd" clip-rule="evenodd" fill="none" stroke="#FFFFFF" stroke-width="2" stroke-linejoin="round" stroke-miterlimit="3.863693" x1="112" y1="214" x2="142" y2="214"/>
<line fill-rule="evenodd" clip-rule="evenodd" fill="none" stroke="#FFFFFF" stroke-linejoin="round" stroke-miterlimit="3.863693" stroke-dasharray="4 4" x1="0" y1="228" x2="114" y2="228"/>
<line fill-rule="evenodd" clip-rule="evenodd" fill="none" stroke="#000000" stroke-width="3" stroke-linejoin="round" stroke-miterlimit="3.863693" x1="114" y1="222" x2="114" y2="234"/>
<line fill-rule="evenodd" clip-rule="evenodd" fill="none" stroke="#FFFFFF" stroke-width="2" stroke-linejoin="round" stroke-miterlimit="3.863693" x1="112" y1="210" x2="112" y2="246"/>
<line fill-rule="evenodd" clip-rule="evenodd" fill="none" stroke="#FFFFFF" stroke-linejoin="round" stroke-miterlimit="3.863693" stroke-dasharray="4 4" x1="150" y1="228" x2="462" y2="228"/>
<path fill-rule="evenodd" clip-rule="evenodd" fill="none" stroke="#000000" stroke-width="23" stroke-linejoin="round" stroke-miterlimit="3.863693" d="
	M696,168h12c12,0,60-12,60-12c48-12,60-12,60-12h12"/>
<path fill-rule="evenodd" clip-rule="evenodd" fill="none" stroke="#000000" stroke-width="11" stroke-linejoin="round" stroke-miterlimit="3.863693" d="
	M510,294c0-60,60-60,60-60"/>
<path fill-rule="evenodd" clip-rule="evenodd" fill="none" stroke="#000000" stroke-width="11" stroke-linejoin="round" stroke-miterlimit="3.863693" d="
	M462,294c0-60-60-60-60-60"/>
<line fill-rule="evenodd" clip-rule="evenodd" fill="none" stroke="#FFFFFF" stroke-linejoin="round" stroke-miterlimit="3.863693" stroke-dasharray="4 4" x1="972" y1="228" x2="600" y2="228"/>
<line fill-rule="evenodd" clip-rule="evenodd" fill="none" stroke="#000000" stroke-width="3" stroke-linejoin="round" stroke-miterlimit="3.863693" x1="516" y1="240" x2="504" y2="240"/>
<line fill-rule="evenodd" clip-rule="evenodd" fill="none" stroke="#FFFFFF" stroke-width="2" stroke-linejoin="round" stroke-miterlimit="3.863693" x1="526" y1="242" x2="496" y2="242"/>
<line fill-rule="evenodd" clip-rule="evenodd" fill="none" stroke="#000000" stroke-width="3" stroke-linejoin="round" stroke-miterlimit="3.863693" x1="492" y1="216" x2="480" y2="216"/>
<line fill-rule="evenodd" clip-rule="evenodd" fill="none" stroke="#FFFFFF" stroke-width="2" stroke-linejoin="round" stroke-miterlimit="3.863693" x1="506" y1="214" x2="470" y2="214"/>
<line fill-rule="evenodd" clip-rule="evenodd" fill="none" stroke="#FFFFFF" stroke-width="2" stroke-linejoin="round" stroke-miterlimit="3.863693" x1="474" y1="204" x2="456" y2="246"/>
<line fill-rule="evenodd" clip-rule="evenodd" fill="none" stroke="#000000" stroke-width="3" stroke-linejoin="round" stroke-miterlimit="3.863693" x1="852" y1="156" x2="840" y2="156"/>
<line fill-rule="evenodd" clip-rule="evenodd" fill="none" stroke="#FFFFFF" stroke-width="2" stroke-linejoin="round" stroke-miterlimit="3.863693" x1="860" y1="158" x2="830" y2="158"/>
<line fill-rule="evenodd" clip-rule="evenodd" fill="none" stroke="#FFFFFF" stroke-linejoin="round" stroke-miterlimit="3.863693" stroke-dasharray="4 4" x1="972" y1="144" x2="858" y2="144"/>
<line fill-rule="evenodd" clip-rule="evenodd" fill="none" stroke="#000000" stroke-width="3" stroke-linejoin="round" stroke-miterlimit="3.863693" x1="858" y1="150" x2="858" y2="138"/>
<line fill-rule="evenodd" clip-rule="evenodd" fill="none" stroke="#FFFFFF" stroke-width="2" stroke-linejoin="round" stroke-miterlimit="3.863693" x1="860" y1="162" x2="860" y2="126"/>
<line fill-rule="evenodd" clip-rule="evenodd" fill="none" stroke="#FFFFFF" stroke-linejoin="round" stroke-miterlimit="3.863693" stroke-dasharray="4 4" x1="822" y1="144" x2="510" y2="144"/>
</svg>
