<?xml version="1.0" encoding="UTF-8" standalone="no"?>
<!-- Created with Inkscape (http://www.inkscape.org/) -->

<svg
   xmlns:dc="http://purl.org/dc/elements/1.1/"
   xmlns:cc="http://creativecommons.org/ns#"
   xmlns:rdf="http://www.w3.org/1999/02/22-rdf-syntax-ns#"
   xmlns:svg="http://www.w3.org/2000/svg"
   xmlns="http://www.w3.org/2000/svg"
   xmlns:sodipodi="http://sodipodi.sourceforge.net/DTD/sodipodi-0.dtd"
   xmlns:inkscape="http://www.inkscape.org/namespaces/inkscape"
   width="100px"
   height="50px"
   viewBox="0 0 100 50"
   version="1.1"
   id="SVGRoot"
   inkscape:version="0.92.3 (2405546, 2018-03-11)"
   sodipodi:docname="logo-white.svg">
  <sodipodi:namedview
     id="base"
     pagecolor="#ffffff"
     bordercolor="#666666"
     borderopacity="1.0"
     inkscape:pageopacity="0.0"
     inkscape:pageshadow="2"
     inkscape:zoom="5.12"
     inkscape:cx="50"
     inkscape:cy="25"
     inkscape:document-units="px"
     inkscape:current-layer="layer1"
     showgrid="false"
     inkscape:window-width="1920"
     inkscape:window-height="1017"
     inkscape:window-x="-8"
     inkscape:window-y="-8"
     inkscape:window-maximized="1" />
  <defs
     id="defs1495" />
  <metadata
     id="metadata1498">
    <rdf:RDF>
      <cc:Work
         rdf:about="">
        <dc:format>image/svg+xml</dc:format>
        <dc:type
           rdf:resource="http://purl.org/dc/dcmitype/StillImage" />
        <dc:title></dc:title>
      </cc:Work>
    </rdf:RDF>
  </metadata>
  <g
     id="layer1"
     inkscape:groupmode="layer"
     inkscape:label="Layer 1">
    <g
       id="g5797"
       transform="translate(14.942739,-42.275756)"
       style="fill:#ffffff;fill-opacity:1;stroke:none;stroke-width:0.148;stroke-miterlimit:4;stroke-dasharray:none">
      <path
         style="fill:#ffffff;fill-opacity:1;stroke:none;stroke-width:0.148;stroke-miterlimit:4;stroke-dasharray:none"
         id="path4"
         d="m 40.873255,60.183115 h 3.370176 c 0.248155,0 0.449357,-0.207035 0.449357,-0.462891 v -4.490581 c 0,-0.255856 -0.201202,-0.462891 -0.449357,-0.462891 h -3.370176 c -0.248154,0 -0.449356,0.207035 -0.449356,0.462891 v 4.490581 c 0,0.255856 0.201202,0.462891 0.449356,0.462891 z m 0.449357,-4.490582 h 2.471462 v 3.564801 h -2.471462 z"
         inkscape:connector-curvature="0" />
      <path
         style="fill:#ffffff;fill-opacity:1;stroke:none;stroke-width:0.148;stroke-miterlimit:4;stroke-dasharray:none"
         id="path6"
         d="m 46.752412,60.183115 h 3.370176 c 0.248154,0 0.449356,-0.207035 0.449356,-0.462891 v -4.490581 c 0,-0.255856 -0.201202,-0.462891 -0.449356,-0.462891 h -3.370176 c -0.248154,0 -0.449357,0.207035 -0.449357,0.462891 v 4.490581 c 0,0.255856 0.201203,0.462891 0.449357,0.462891 z m 0.449356,-4.490582 h 2.471463 v 3.564801 h -2.471463 z"
         inkscape:connector-curvature="0" />
      <path
         style="fill:#ffffff;fill-opacity:1;stroke:none;stroke-width:0.148;stroke-miterlimit:4;stroke-dasharray:none"
         id="path8"
         d="m 52.631568,60.183115 h 3.370176 c 0.248155,0 0.449357,-0.207035 0.449357,-0.462891 v -4.490581 c 0,-0.255856 -0.201201,-0.462891 -0.449357,-0.462891 h -3.370176 c -0.248154,0 -0.449356,0.207035 -0.449356,0.462891 v 4.490581 c 0,0.255856 0.201201,0.462891 0.449356,0.462891 z m 0.449357,-4.490582 h 2.471463 v 3.564801 h -2.471463 z"
         inkscape:connector-curvature="0" />
      <path
         style="fill:#ffffff;fill-opacity:1;stroke:none;stroke-width:0.148;stroke-miterlimit:4;stroke-dasharray:none"
         id="path10"
         d="m 40.873255,67.843412 h 3.370176 c 0.248155,0 0.449357,-0.207034 0.449357,-0.46289 v -4.491034 c 0,-0.255856 -0.201202,-0.46289 -0.449357,-0.46289 h -3.370176 c -0.248154,0 -0.449356,0.207034 -0.449356,0.46289 v 4.491034 c 0,0.255856 0.201202,0.46289 0.449356,0.46289 z m 0.449357,-4.491033 h 2.471462 v 3.565252 h -2.471462 z"
         inkscape:connector-curvature="0" />
      <path
         style="fill:#ffffff;fill-opacity:1;stroke:none;stroke-width:0.148;stroke-miterlimit:4;stroke-dasharray:none"
         id="path12"
         d="m 46.752412,67.843412 h 3.370176 c 0.248154,0 0.449356,-0.207034 0.449356,-0.46289 v -4.491034 c 0,-0.255856 -0.201202,-0.46289 -0.449356,-0.46289 h -3.370176 c -0.248154,0 -0.449357,0.207034 -0.449357,0.46289 v 4.491034 c 0,0.255856 0.201203,0.46289 0.449357,0.46289 z m 0.449356,-4.491033 h 2.471463 v 3.565252 h -2.471463 z"
         inkscape:connector-curvature="0" />
      <path
         style="fill:#ffffff;fill-opacity:1;stroke:none;stroke-width:0.148;stroke-miterlimit:4;stroke-dasharray:none"
         id="path14"
         d="m 52.631568,67.843412 h 3.370176 c 0.248155,0 0.449357,-0.207034 0.449357,-0.46289 v -4.491034 c 0,-0.255856 -0.201201,-0.46289 -0.449357,-0.46289 h -3.370176 c -0.248154,0 -0.449356,0.207034 -0.449356,0.46289 v 4.491034 c 0,0.255856 0.201201,0.46289 0.449356,0.46289 z m 0.449357,-4.491033 h 2.471463 v 3.565252 h -2.471463 z"
         inkscape:connector-curvature="0" />
      <path
         style="fill:#ffffff;fill-opacity:1;stroke:none;stroke-width:0.148;stroke-miterlimit:4;stroke-dasharray:none"
         id="path16"
         d="M 60.420273,48.671875 H 36.454728 c -0.248157,0 -0.449358,0.207035 -0.449358,0.462891 v 2.623197 c 0,0.255856 0.201202,0.462891 0.449358,0.462891 h 0.420394 v 33.01938 c 0,0.255856 0.201201,0.462891 0.449356,0.462891 h 22.226044 c 0.248154,0 0.449356,-0.207035 0.449356,-0.462891 v -33.01938 h 0.420395 c 0.248154,0 0.449357,-0.207035 0.449357,-0.462891 v -2.623197 c 0,-0.255856 -0.201203,-0.462891 -0.449357,-0.462891 z m -23.516188,0.925781 h 23.066832 v 1.697416 H 36.904083 Z m 22.197081,28.699219 h -7.050161 v -4.281738 c 0,-0.255856 -0.201202,-0.462891 -0.449357,-0.462891 h -6.328295 c -0.248155,0 -0.449357,0.207035 -0.449357,0.462891 v 4.281738 h -7.050161 v -6.750338 h 21.327331 z m -7.948875,6.480469 H 45.722709 V 74.478027 H 51.15229 Z M 37.773836,79.222656 h 7.05016 v 5.554688 h -7.050162 z m 14.277169,5.554688 v -5.554688 h 7.050161 v 5.554688 z m 7.05016,-14.156588 H 37.773834 V 52.220854 h 21.327331 z"
         inkscape:connector-curvature="0" />
    </g>
    <g
       id="g5788"
       transform="matrix(0.8579935,0,0,0.8579935,-52.003829,-30.231823)"
       style="fill:#ffffff;fill-opacity:1;stroke:none;stroke-width:0.17249548;stroke-miterlimit:4;stroke-dasharray:none">
      <path
         style="fill:#ffffff;fill-opacity:1;stroke:none;stroke-width:0.17249548;stroke-miterlimit:4;stroke-dasharray:none"
         id="path2"
         d="m 63.314294,86.05625 h 34.43278 c 0.311609,0 0.519348,-0.207739 0.519348,-0.519348 V 53.129578 h 0.259674 c 0.311609,0 0.519348,-0.20774 0.519348,-0.519349 v -3.116088 c 0,-0.311609 -0.207739,-0.519349 -0.519348,-0.519349 h -9.348267 v -2.285131 c 0,-0.311609 -0.207734,-0.519349 -0.519348,-0.519349 h -2.804474 c -0.311615,0 -0.519349,0.20774 -0.519349,0.519349 v 2.285131 h -0.779024 v -2.285131 c 0,-0.311609 -0.20774,-0.519349 -0.519349,-0.519349 h -2.80448 c -0.311608,0 -0.519348,0.20774 -0.519348,0.519349 v 2.285131 h -2.337066 c -0.311609,0 -0.519349,0.20774 -0.519349,0.519349 v 3.116088 c 0,0.311609 0.20774,0.519349 0.519349,0.519349 h 0.259674 v 4.466394 H 62.275598 c -0.311609,0 -0.519348,0.207739 -0.519348,0.519348 v 3.116089 c 0,0.311609 0.207739,0.519348 0.519348,0.519348 h 0.519348 v 23.73421 c 0,0.311609 0.259674,0.571283 0.519348,0.571283 z M 63.833643,61.750757 H 78.687 V 84.965619 H 74.428345 V 74.578656 c 0,-0.311609 -0.20774,-0.519348 -0.519348,-0.519348 H 68.66358 c -0.311609,0 -0.519348,0.207739 -0.519348,0.519348 v 10.438898 h -4.310589 z m 9.556005,23.266797 h -4.20672 v -9.91955 h 4.20672 z M 86.425284,47.209009 h 1.765789 v 1.765783 h -1.765789 z m -4.622196,0 h 1.765784 v 1.765783 h -1.765784 z m -2.856414,2.80448 h 19.112014 v 2.077392 H 78.946674 Z m 18.281057,3.116089 V 85.017554 H 79.725696 V 53.129578 Z m -34.432785,5.50509 H 78.687 v 2.077393 H 62.794946 Z"
         inkscape:connector-curvature="0" />
      <path
         style="fill:#ffffff;fill-opacity:1;stroke:none;stroke-width:0.17249548;stroke-miterlimit:4;stroke-dasharray:none"
         id="path4-0"
         d="m 89.956852,70.683545 h 3.947051 c 0.311603,0 0.519348,-0.207739 0.519348,-0.519348 v -4.829938 c 0,-0.311609 -0.207745,-0.519348 -0.519348,-0.519348 h -3.947051 c -0.311609,0 -0.519348,0.207739 -0.519348,0.519348 v 4.829938 c 0,0.311609 0.259674,0.519348 0.519348,0.519348 z M 90.4762,69.644849 v -1.350306 h 2.908355 v 1.350306 z m 2.960284,-3.739307 v 1.350305 H 90.52814 v -1.350305 z"
         inkscape:connector-curvature="0" />
      <path
         style="fill:#ffffff;fill-opacity:1;stroke:none;stroke-width:0.17249548;stroke-miterlimit:4;stroke-dasharray:none"
         id="path6-5"
         d="m 83.205328,70.683545 h 3.947049 c 0.311604,0 0.519348,-0.207739 0.519348,-0.519348 v -4.829938 c 0,-0.311609 -0.207744,-0.519348 -0.519348,-0.519348 h -3.947049 c -0.311609,0 -0.519348,0.207739 -0.519348,0.519348 v 4.829938 c 0,0.311609 0.207739,0.519348 0.519348,0.519348 z m 0.519349,-1.038696 v -1.350306 h 2.908352 v 1.350306 z m 2.908352,-3.739307 v 1.350305 h -2.908352 v -1.350305 z"
         inkscape:connector-curvature="0" />
      <path
         style="fill:#ffffff;fill-opacity:1;stroke:none;stroke-width:0.17249548;stroke-miterlimit:4;stroke-dasharray:none"
         id="path8-5"
         d="m 89.956852,80.239551 h 3.947051 c 0.311603,0 0.519348,-0.207739 0.519348,-0.519348 v -4.829938 c 0,-0.311609 -0.207745,-0.519348 -0.519348,-0.519348 h -3.947051 c -0.311609,0 -0.519348,0.207739 -0.519348,0.519348 v 4.829938 c 0,0.259674 0.259674,0.519348 0.519348,0.519348 z M 90.4762,79.200854 v -1.350305 h 2.908355 v 1.350305 z m 2.960284,-3.791241 v 1.350305 H 90.52814 v -1.350305 z"
         inkscape:connector-curvature="0" />
      <path
         style="fill:#ffffff;fill-opacity:1;stroke:none;stroke-width:0.17249548;stroke-miterlimit:4;stroke-dasharray:none"
         id="path10-1"
         d="m 83.205328,80.239551 h 3.947049 c 0.311604,0 0.519348,-0.207739 0.519348,-0.519348 v -4.829938 c 0,-0.311609 -0.207744,-0.519348 -0.519348,-0.519348 h -3.947049 c -0.311609,0 -0.519348,0.207739 -0.519348,0.519348 v 4.829938 c 0,0.259674 0.207739,0.519348 0.519348,0.519348 z m 0.519349,-1.038697 v -1.350305 h 2.908352 v 1.350305 z m 2.908352,-3.791241 v 1.350305 h -2.908352 v -1.350305 z"
         inkscape:connector-curvature="0" />
      <path
         style="fill:#ffffff;fill-opacity:1;stroke:none;stroke-width:0.17249548;stroke-miterlimit:4;stroke-dasharray:none"
         id="path12-3"
         d="m 89.956852,61.335278 h 3.947051 c 0.311603,0 0.519348,-0.207739 0.519348,-0.519348 v -4.829938 c 0,-0.311608 -0.207745,-0.519348 -0.519348,-0.519348 h -3.947051 c -0.311609,0 -0.519348,0.20774 -0.519348,0.519348 v 4.829938 c 0,0.259674 0.259674,0.519348 0.519348,0.519348 z M 90.4762,60.296582 v -1.350305 h 2.908355 v 1.350305 z m 2.960284,-3.791241 v 1.350305 H 90.52814 v -1.350305 z"
         inkscape:connector-curvature="0" />
      <path
         style="fill:#ffffff;fill-opacity:1;stroke:none;stroke-width:0.17249548;stroke-miterlimit:4;stroke-dasharray:none"
         id="path14-6"
         d="m 83.205328,61.335278 h 3.947049 c 0.311604,0 0.519348,-0.207739 0.519348,-0.519348 v -4.829938 c 0,-0.311608 -0.207744,-0.519348 -0.519348,-0.519348 h -3.947049 c -0.311609,0 -0.519348,0.20774 -0.519348,0.519348 v 4.829938 c 0,0.259674 0.207739,0.519348 0.519348,0.519348 z m 0.519349,-1.038696 v -1.350305 h 2.908352 v 1.350305 z m 2.908352,-3.791241 v 1.350305 h -2.908352 v -1.350305 z"
         inkscape:connector-curvature="0" />
      <path
         style="fill:#ffffff;fill-opacity:1;stroke:none;stroke-width:0.17249548;stroke-miterlimit:4;stroke-dasharray:none"
         id="path16-8"
         d="m 72.818365,70.683545 h 3.947046 c 0.311609,0 0.519349,-0.207739 0.519349,-0.519348 v -4.829938 c 0,-0.311609 -0.20774,-0.519348 -0.519349,-0.519348 h -3.947046 c -0.311608,0 -0.519348,0.207739 -0.519348,0.519348 v 4.829938 c 0,0.311609 0.259674,0.519348 0.519348,0.519348 z m 0.519349,-1.038696 v -1.350306 h 2.908349 v 1.350306 z m 2.960284,-3.739307 v 1.350305 h -2.90835 v -1.350305 z"
         inkscape:connector-curvature="0" />
      <path
         style="fill:#ffffff;fill-opacity:1;stroke:none;stroke-width:0.17249548;stroke-miterlimit:4;stroke-dasharray:none"
         id="path18"
         d="m 70.013885,70.683545 c 0.311609,0 0.519349,-0.207739 0.519349,-0.519348 v -4.829938 c 0,-0.311609 -0.20774,-0.519348 -0.519349,-0.519348 H 66.06684 c -0.311609,0 -0.519349,0.207739 -0.519349,0.519348 v 4.829938 c 0,0.311609 0.20774,0.519348 0.519349,0.519348 z m -3.427697,-1.038696 v -1.350306 h 2.908349 v 1.350306 z m 2.908349,-3.739307 v 1.350305 h -2.908349 v -1.350305 z"
         inkscape:connector-curvature="0" />
    </g>
    <g
       id="g5807"
       transform="matrix(0.67565433,0,0,0.67565433,25.6838,-14.673779)"
       style="fill:#ffffff;fill-opacity:1;stroke:none;stroke-width:0.21904692;stroke-miterlimit:4;stroke-dasharray:none">
      <path
         style="fill:#ffffff;fill-opacity:1;stroke:none;stroke-width:0.21904692;stroke-miterlimit:4;stroke-dasharray:none"
         id="path4-01"
         d="m 26.362792,71.93148 h -4.36262 c -0.31537,0 -0.52561,0.210247 -0.52561,0.525617 v 7.568881 c 0,0.315369 0.21024,0.525617 0.52561,0.525617 h 4.36262 c 0.31537,0 0.52562,-0.210248 0.52562,-0.525617 v -7.568881 c 0,-0.262808 -0.26281,-0.525617 -0.52562,-0.525617 z m -0.52562,3.784441 c -0.0526,0 -0.0526,0 0,0 h -1.10379 v -2.733207 h 1.10379 z m -2.20759,-2.733207 v 2.733207 h -1.15635 v -2.733207 z m -1.15635,3.78444 h 1.15635 v 2.733207 h -1.15635 z m 2.20759,2.733207 v -2.733207 h 1.05123 c 0,0 0.0526,0 0.0526,0 v 2.733207 z"
         inkscape:connector-curvature="0" />
      <path
         style="fill:#ffffff;fill-opacity:1;stroke:none;stroke-width:0.21904692;stroke-miterlimit:4;stroke-dasharray:none"
         id="path6-7"
         d="m 33.773992,71.93148 h -4.36262 c -0.31537,0 -0.52562,0.210247 -0.52562,0.525617 v 7.568881 c 0,0.315369 0.21025,0.525617 0.52562,0.525617 h 4.36262 c 0.31537,0 0.52561,-0.210248 0.52561,-0.525617 v -7.568881 c 0,-0.262808 -0.21024,-0.525617 -0.52561,-0.525617 z m -2.68065,7.568881 h -1.15636 v -2.733207 h 1.15636 z m 0,-3.78444 h -1.15636 v -2.733207 h 1.15636 z m 2.15503,3.78444 h -1.1038 v -2.733207 h 1.05124 c 0,0 0.0526,0 0.0526,0 z m 0,-3.78444 c 0,0 0,0 0,0 h -1.1038 v -2.733207 h 1.1038 z"
         inkscape:connector-curvature="0" />
      <path
         style="fill:#ffffff;fill-opacity:1;stroke:none;stroke-width:0.21904692;stroke-miterlimit:4;stroke-dasharray:none"
         id="path8-1"
         d="m 26.362792,59.31668 h -4.36262 c -0.31537,0 -0.52561,0.210246 -0.52561,0.525616 v 7.568881 c 0,0.31537 0.21024,0.525616 0.52561,0.525616 h 4.36262 c 0.31537,0 0.52562,-0.210246 0.52562,-0.525616 v -7.568881 c 0,-0.31537 -0.26281,-0.525616 -0.52562,-0.525616 z m -0.52562,1.051233 v 2.733207 c 0,0 -0.0526,0 -0.0526,0 h -1.05123 v -2.733207 z m -2.20759,0 v 2.733207 h -1.15635 v -2.733207 z m -1.15635,6.517647 v -2.733207 h 1.15635 v 2.733207 z m 2.20759,0 v -2.733207 h 1.05123 c 0,0 0.0526,0 0.0526,0 v 2.733207 z"
         inkscape:connector-curvature="0" />
      <path
         style="fill:#ffffff;fill-opacity:1;stroke:none;stroke-width:0.21904692;stroke-miterlimit:4;stroke-dasharray:none"
         id="path10-7"
         d="m 18.583662,59.31668 h -4.36261 c -0.31537,0 -0.52562,0.210246 -0.52562,0.525616 v 7.568881 c 0,0.31537 0.21025,0.525616 0.52562,0.525616 h 4.36261 c 0.31537,0 0.52562,-0.210246 0.52562,-0.525616 v -7.568881 c 0,-0.31537 -0.21025,-0.525616 -0.52562,-0.525616 z m -0.52561,3.78444 c 0,0 0,0 0,0 h -1.1038 v -2.733207 h 1.1038 z m -2.15503,-2.733207 v 2.733207 h -1.15636 v -2.733207 z m -1.15636,3.78444 h 1.15636 v 2.733207 h -1.15636 z m 2.20759,2.733207 v -2.733207 h 1.05124 c 0,0 0.0526,0 0.0526,0 v 2.733207 z"
         inkscape:connector-curvature="0" />
      <path
         style="fill:#ffffff;fill-opacity:1;stroke:none;stroke-width:0.21904692;stroke-miterlimit:4;stroke-dasharray:none"
         id="path12-6"
         d="m 33.879112,59.31668 h -4.36262 c -0.31537,0 -0.52562,0.210246 -0.52562,0.525616 v 7.568881 c 0,0.31537 0.21025,0.525616 0.52562,0.525616 h 4.36262 c 0.31537,0 0.52562,-0.210246 0.52562,-0.525616 v -7.568881 c 0,-0.31537 -0.26281,-0.525616 -0.52562,-0.525616 z m -0.52562,3.78444 c 0,0 -0.0526,0 0,0 h -1.10379 v -2.733207 h 1.10379 z m -2.15503,-2.733207 v 2.733207 h -1.15635 v -2.733207 z m -1.15635,3.78444 h 1.15635 v 2.733207 h -1.15635 z m 2.20759,2.733207 v -2.733207 h 1.05123 c 0,0 0.0526,0 0.0526,0 v 2.733207 z"
         inkscape:connector-curvature="0" />
      <path
         style="fill:#ffffff;fill-opacity:1;stroke:none;stroke-width:0.21904692;stroke-miterlimit:4;stroke-dasharray:none"
         id="path14-65"
         d="m 37.926362,52.063169 -1.05124,-5.99203 c -0.0526,-0.262809 -0.2628,-0.420494 -0.52561,-0.420494 h -10.09184 l -1.7871,-1.787096 c -0.21025,-0.210247 -0.52562,-0.210247 -0.73586,0 l -1.7871,1.787096 h -10.09184 c -0.26281,0 -0.47305,0.157685 -0.52562,0.420494 l -1.05123,5.99203 c 0,0.05256 0,0.05256 0,0.105123 v 33.218976 c 0,0.31537 0.21025,0.525617 0.52562,0.525617 h 26.64876 c 0.31537,0 0.52562,-0.210247 0.52562,-0.525617 V 52.115731 c -0.0526,0 -0.0526,-0.05256 -0.0526,-0.05256 z m -13.82372,-7.148387 1.57685,1.57685 c 0,0 0,0 0,0 l 1.26148,1.26148 h -5.67666 z m 0.52562,5.466414 v -1.524289 h 2.89089 v 1.524289 z m 2.89089,1.051233 v 1.524288 h -2.89089 v -1.524288 z m -6.83302,-1.051233 v -1.524289 h 2.89089 v 1.524289 z m 2.89089,1.051233 v 1.524288 h -2.89089 v -1.524288 z m -12.24687,0.735863 0.94611,-5.518975 h 8.62012 l -1.1038,1.103795 c -0.10512,0.105124 -0.15768,0.210247 -0.15768,0.367932 v 4.783112 h -8.30475 z m 8.0945,32.640797 h -5.15104 V 72.982714 h 5.15104 z m 17.45047,0 H 20.475882 V 72.457097 c 0,-0.31537 -0.21024,-0.525617 -0.52561,-0.525617 h -6.20228 c -0.31537,0 -0.52562,0.210247 -0.52562,0.525617 v 12.351992 h -1.89222 v -28.96148 h 25.59754 v 28.96148 z m 0,-30.012713 h -25.54497 v -0.788425 h 25.59754 v 0.788425 z m 0,-1.839659 h -8.30474 v -4.783111 c 0,-0.157685 -0.0526,-0.262809 -0.15768,-0.367932 l -1.1038,-1.103795 h 8.62011 l 0.94611,5.518975 z"
         inkscape:connector-curvature="0" />
      <g
         id="g18"
         transform="matrix(0.5256167,0,0,0.5256167,-1.862824,39.18556)"
         style="fill:#ffffff;fill-opacity:1;stroke:none;stroke-width:0.41674268;stroke-miterlimit:4;stroke-dasharray:none">
        <circle
           id="circle16"
           r="0.89999998"
           cy="77.699997"
           cx="33.299999"
           style="fill:#ffffff;fill-opacity:1;stroke:none;stroke-width:0.41674268;stroke-miterlimit:4;stroke-dasharray:none" />
      </g>
    </g>
    <g
       id="g5777"
       transform="matrix(0.87796997,0,0,0.87796997,-23.488837,-45.074049)"
       style="fill:#ffffff;fill-opacity:1;stroke:none;stroke-width:0.1685707;stroke-miterlimit:4;stroke-dasharray:none">
      <g
         id="g5813"
         transform="translate(13.570011,0.44491822)"
         style="fill:#ffffff;fill-opacity:1;stroke:none;stroke-width:0.1685707;stroke-miterlimit:4;stroke-dasharray:none">
        <path
           inkscape:connector-curvature="0"
           d="m 103.63689,75.107679 h 3.68792 c 0.27179,0 0.49172,-0.21993 0.49172,-0.491723 v -6.123005 c 0,-0.271792 -0.21993,-0.491722 -0.49172,-0.491722 h -3.68792 c -0.27179,0 -0.49173,0.21993 -0.49173,0.491722 v 6.123005 c 0,0.271793 0.21994,0.491723 0.49173,0.491723 z m 0.49172,-6.123005 h 2.70447 v 5.13956 h -2.70447 z"
           id="path4-6"
           style="fill:#ffffff;fill-opacity:1;stroke:none;stroke-width:0.1685707;stroke-miterlimit:4;stroke-dasharray:none" />
        <path
           inkscape:connector-curvature="0"
           d="m 110.0701,75.107679 h 3.68792 c 0.2718,0 0.49172,-0.21993 0.49172,-0.491723 v -6.123005 c 0,-0.271792 -0.21992,-0.491722 -0.49172,-0.491722 h -3.68792 c -0.27179,0 -0.49172,0.21993 -0.49172,0.491722 v 6.123005 c 0,0.271793 0.21993,0.491723 0.49172,0.491723 z m 0.49172,-6.123005 h 2.70448 v 5.13956 h -2.70448 z"
           id="path6-3"
           style="fill:#ffffff;fill-opacity:1;stroke:none;stroke-width:0.1685707;stroke-miterlimit:4;stroke-dasharray:none" />
        <path
           inkscape:connector-curvature="0"
           d="m 116.50331,75.107679 h 3.68793 c 0.27178,0 0.49172,-0.21993 0.49172,-0.491723 v -6.123005 c 0,-0.271792 -0.21994,-0.491722 -0.49172,-0.491722 h -3.68793 c -0.27179,0 -0.49172,0.21993 -0.49172,0.491722 v 6.123005 c 0,0.271793 0.21993,0.491723 0.49172,0.491723 z m 0.49173,-6.123005 h 2.70447 v 5.13956 h -2.70447 z"
           id="path8-8"
           style="fill:#ffffff;fill-opacity:1;stroke:none;stroke-width:0.1685707;stroke-miterlimit:4;stroke-dasharray:none" />
        <path
           inkscape:connector-curvature="0"
           d="m 98.801286,64.81092 h 0.46004 v 35.076066 c 0,0.271794 0.21992,0.491724 0.49172,0.491724 h 24.322034 c 0.27179,0 0.49172,-0.21993 0.49172,-0.491724 V 64.81092 h 0.46003 c 0.27179,0 0.49172,-0.219931 0.49172,-0.491723 v -2.786589 c 0,-0.271792 -0.21993,-0.491723 -0.49172,-0.491723 H 98.801286 c -0.27179,0 -0.49172,0.219931 -0.49172,0.491723 v 2.786589 c 0,0.271792 0.21993,0.491723 0.49172,0.491723 z m 24.782074,27.700224 h -7.71487 v -4.548436 c 0,-0.271792 -0.21993,-0.491722 -0.49172,-0.491722 h -6.92542 c -0.27179,0 -0.49172,0.21993 -0.49172,0.491722 v 4.548436 h -7.71486 V 84.52356 c 0.35586,0.240609 0.78458,0.381247 1.24563,0.381247 0.70595,0 1.32868,-0.336079 1.73736,-0.84962 0.40868,0.513541 1.03141,0.84962 1.73736,0.84962 0.70591,0 1.32861,-0.336079 1.73732,-0.84959 0.40865,0.513511 1.03126,0.84959 1.73691,0.84959 0.70595,0 1.32867,-0.336079 1.73736,-0.84962 0.40868,0.513541 1.0314,0.84962 1.73735,0.84962 0.70595,0 1.32868,-0.336079 1.73736,-0.84962 0.40868,0.513541 1.0314,0.84962 1.73736,0.84962 0.70565,0 1.32825,-0.336079 1.7369,-0.84959 0.40871,0.513511 1.03141,0.84959 1.73733,0.84959 0.70595,0 1.32868,-0.336079 1.73735,-0.84962 0.40868,0.513541 1.03141,0.84962 1.73736,0.84962 0.46105,0 0.88978,-0.140638 1.24564,-0.381247 z m -8.69832,6.884119 h -5.94196 V 88.454431 h 5.94196 z m 8.69832,-16.719535 c 0,0.686683 -0.55896,1.245634 -1.24564,1.245634 -0.68668,0 -1.24563,-0.558951 -1.24563,-1.245634 v -2.949377 h 2.49127 z m -3.47472,0 c 0,0.686683 -0.55895,1.245634 -1.24563,1.245634 -0.68669,0 -1.24563,-0.558951 -1.24563,-1.245634 v -2.949377 h 2.49126 z m -3.47471,0 c 0,0.686683 -0.55847,1.245634 -1.24515,1.245634 -0.68669,0 -1.24564,-0.558951 -1.24564,-1.245634 v -2.949377 h 2.49079 z m -3.47423,0 c 0,0.686683 -0.55895,1.245634 -1.24564,1.245634 -0.68668,0 -1.24563,-0.558951 -1.24563,-1.245634 v -2.949377 h 2.49127 z m -3.47472,0 c 0,0.686683 -0.55895,1.245634 -1.24563,1.245634 -0.68669,0 -1.24515,-0.558951 -1.24515,-1.245634 v -2.949377 h 2.49078 z m -3.47423,0 c 0,0.686683 -0.55895,1.245634 -1.24563,1.245634 -0.68669,0 -1.24564,-0.558951 -1.24564,-1.245634 v -2.949377 h 2.49127 z m -3.47472,0 c 0,0.686683 -0.55895,1.245634 -1.24563,1.245634 -0.68668,0 -1.24563,-0.558951 -1.24563,-1.245634 v -2.949377 h 2.49126 z m -2.49126,10.818862 h 7.71486 v 5.900673 h -7.71486 z m 15.62372,5.900673 V 93.49459 h 7.71487 v 5.900673 z m 7.71487,-20.652357 H 100.24477 V 64.81092 h 23.33859 z M 99.293016,62.024331 H 124.5351 v 1.803143 H 99.293016 Z"
           id="path10-2"
           style="fill:#ffffff;fill-opacity:1;stroke:none;stroke-width:0.1685707;stroke-miterlimit:4;stroke-dasharray:none" />
      </g>
    </g>
    <path
       style="fill:#ffffff;fill-opacity:1;stroke:none;stroke-width:0.148;stroke-linecap:round;stroke-linejoin:miter;stroke-miterlimit:4;stroke-dasharray:none;stroke-opacity:1;paint-order:fill markers stroke"
       d="M 2.118294,43.422958 C 2.046014,43.350678 1.986882,38.654102 1.986882,32.986118 V 22.680691 L 1.547429,22.618281 C 1.133522,22.559501 1.107976,22.465038 1.107976,20.993369 v -1.5625 l 7.1777341,-0.05124 7.1777339,-0.05123 v -2.048377 c 0,-1.690569 -0.05118,-2.048374 -0.292968,-2.048374 -0.237439,0 -0.292969,-0.31467 -0.292969,-1.660156 v -1.660157 h 1.269531 1.269531 v -1.18009 -1.180091 l 1.513672,0.05704 1.513672,0.05704 0.05857,1.123047 c 0.05024,0.963234 0.112776,1.123046 0.439454,1.123046 0.33531,0 0.380878,-0.140204 0.380878,-1.171875 V 9.567577 h 1.5625 1.5625 v 1.171875 1.171875 h 4.199219 4.199219 v 1.660166 c 0,1.342236 -0.05586,1.660156 -0.291684,1.660156 -0.25555,0 -0.297892,1.748116 -0.341797,14.111327 l -0.05011,14.111328 -14.956478,0.05003 C 8.9801212,43.531853 2.19057,43.495233 2.118293,43.422953 Z m 4.406069,-5.290918 0.05236,-4.638672 h 2.5390621 2.5390629 l 0.05236,4.638672 0.05236,4.638671 h 1.94959 1.94959 V 32.712118 22.653523 H 9.2134414 2.768129 V 32.712117 42.77071 h 1.851934 1.851934 z m 4.446894,0.341796 V 34.176961 H 9.1157882 7.260319 v 4.296875 4.296875 H 9.1157882 10.971257 Z M 31.479069,29.00118 V 15.23165 h -7.617187 -7.617188 v 13.76953 13.769531 h 7.617188 7.617187 z M 15.658757,20.89571 V 19.919148 H 8.7251632 1.791569 v 0.976562 0.976563 h 6.9335942 6.9335938 z m 16.503906,-7.324216 v -0.976563 l -8.251953,-0.05095 -8.251953,-0.05095 v 1.078459 1.078458 l 8.251953,-0.05095 8.251953,-0.05095 z M 19.760319,11.0212 v -0.890136 l -0.830078,0.06006 c -0.749331,0.05422 -0.836244,0.113911 -0.893471,0.613666 -0.102762,0.897414 0.07417,1.106548 0.93617,1.106548 h 0.787379 z m 3.90625,0.01123 v -0.878906 h -0.78125 -0.78125 v 0.878906 0.878906 h 0.78125 0.78125 z"
       id="path5815"
       inkscape:connector-curvature="0" />
    <path
       style="fill:#ffffff;fill-opacity:1;stroke:none;stroke-width:0.148;stroke-linecap:round;stroke-linejoin:miter;stroke-miterlimit:4;stroke-dasharray:none;stroke-opacity:1;paint-order:fill markers stroke"
       d="m 32.783062,43.228349 c -0.07266,-0.07266 -0.132118,-5.154226 -0.132118,-11.292361 0,-10.27335 0.03065,-11.327053 0.385652,-13.259301 0.212108,-1.154482 0.437022,-2.182178 0.499808,-2.283767 0.0648,-0.104847 1.613396,-0.184709 3.581713,-0.184709 h 3.467558 l 0.561363,-0.585936 c 0.30875,-0.322267 0.660313,-0.585939 0.78125,-0.585939 0.120938,0 0.4725,0.263672 0.78125,0.585939 l 0.561364,0.585936 h 3.563578 c 3.224355,0 3.573404,0.03254 3.666796,0.341796 0.05677,0.18799 0.241232,1.176758 0.409917,2.197266 0.258908,1.566334 0.298136,3.62071 0.251741,13.183594 l -0.05496,11.328125 -9.096399,0.05074 c -5.003019,0.02791 -9.155851,-0.0087 -9.228515,-0.08138 z m 1.971245,-4.907164 0.05258,-4.351869 2.291169,0.05499 2.291169,0.05499 0.05257,4.348692 0.05257,4.348693 5.61149,-0.05182 5.61149,-0.05182 0.05063,-9.814453 0.05063,-9.814453 h -8.790869 -8.790869 v 9.875071 9.875072 l 0.732422,-0.06062 0.732422,-0.06062 z m 4.146637,0.347963 v -4.101563 h -1.855468 -1.855469 v 4.101563 4.101562 h 1.855469 1.855468 z M 50.717351,22.067585 c 0,-0.255294 -1.123941,-0.299506 -8.740235,-0.343806 -8.656487,-0.05035 -8.740234,-0.04706 -8.740234,0.343806 0,0.390866 0.08375,0.39416 8.740234,0.343808 7.616294,-0.0443 8.740235,-0.08851 8.740235,-0.343808 z m -9.082032,-1.47505 v -0.693801 l -1.023561,0.05904 c -0.804534,0.0464 -1.037936,0.134616 -1.090737,0.412241 -0.136086,0.715532 0.111881,0.916326 1.131606,0.916326 h 0.982692 z m 2.697922,-0.03862 0.0612,-0.634766 h -1.086594 c -1.062914,0 -1.086593,0.01206 -1.086593,0.553385 0,0.750754 0.135956,0.841108 1.164603,0.773979 0.843035,-0.05502 0.889158,-0.08874 0.947381,-0.692598 z m 6.28642,0.09766 c -1.9e-5,-0.349121 -0.131854,-1.32365 -0.292969,-2.165619 -0.161114,-0.841968 -0.292935,-1.567067 -0.292935,-1.611328 0,-0.04426 -1.318359,-0.08047 -2.929688,-0.08047 -1.611328,0 -2.929687,0.07427 -2.929687,0.16504 0,0.09077 0.175781,0.324122 0.390625,0.518553 0.334538,0.302752 0.390625,0.601557 0.390625,2.081052 v 1.727541 h 2.832031 2.832031 z M 39.096257,19.394627 c 0,-1.472921 0.05594,-1.755946 0.424671,-2.148438 l 0.42467,-0.452041 h -3.031455 -3.031455 l -0.322903,1.944299 c -0.177597,1.069364 -0.322903,2.036161 -0.322903,2.148437 0,0.132904 1.022326,0.20414 2.929687,0.20414 h 2.929688 z m 2.539062,-0.559905 v -0.6938 l -1.023561,0.05904 c -0.804534,0.0464 -1.037936,0.134615 -1.090737,0.41224 -0.136086,0.715533 0.111881,0.916326 1.131606,0.916326 h 0.982692 z m 2.734375,0.01021 v -0.683594 h -1.074218 -1.074219 v 0.683594 0.683594 h 1.074219 1.074218 z m -0.50858,-1.236686 c 0.05523,-0.08936 -0.335095,-0.591424 -0.86738,-1.115705 l -0.96779,-0.953239 -0.976562,0.961877 c -0.537109,0.529033 -0.976563,1.0311 -0.976563,1.115705 0,0.206467 3.660511,0.198118 3.788295,-0.0086 z"
       id="path5817"
       inkscape:connector-curvature="0" />
    <path
       style="fill:#ffffff;fill-opacity:1;stroke:none;stroke-width:0.148;stroke-linecap:round;stroke-linejoin:miter;stroke-miterlimit:4;stroke-dasharray:none;stroke-opacity:1;paint-order:fill markers stroke"
       d="M 51.939145,26.610175 51.889225,9.860555 51.442108,9.797135 C 51.012352,9.736185 50.997185,9.671722 51.051483,8.136978 l 0.05649,-1.596739 12.087555,-0.05033 c 8.765693,-0.0365 12.160646,0.01033 12.353515,0.170399 0.16407,0.136166 0.265961,0.623103 0.265961,1.271031 v 1.050304 h 11.328125 11.328125 v 1.5625 c 0,1.430728 -0.03284,1.5625 -0.389455,1.5625 -0.385395,0 -0.389979,0.162509 -0.439453,15.576171 l -0.05,15.576172 h -10.9375 -10.9375 l -0.05,-15.576172 c -0.04942,-15.397933 -0.05444,-15.576171 -0.438284,-15.576171 -0.383843,0 -0.388859,0.178238 -0.438283,15.576171 l -0.05,15.576172 -11.375862,0.0504 -11.375862,0.0504 z m 31.297737,13.42616 V 37.30196 h -3.417969 -3.417969 v 2.734375 2.734375 h 3.417969 3.417969 z m 6.054687,-2.246093 v -4.980469 h -2.636718 -2.636719 v 4.980469 4.980468 h 2.636719 2.636718 z m 7.769184,2.197265 0.05434,-2.685547 h -3.521137 -3.521137 v 2.738881 2.738883 l 3.466797,-0.05334 3.466797,-0.05333 z m -37.261371,-0.24414 v -2.832032 h -3.613281 -3.613282 v 2.832032 2.832031 h 3.613282 3.613281 z m 6.399674,-2.392578 -0.05202,-5.22461 -2.783203,-0.05419 -2.783203,-0.05419 v 5.278799 5.278801 h 2.835221 2.835222 z m 7.858138,2.392578 v -2.832032 h -3.613281 -3.613281 v 2.832032 2.832031 h 3.613281 3.613281 z m 9.22212,-5.22461 0.05522,-2.197265 h 3.320313 3.320312 l 0.05527,2.201746 0.05526,2.201746 3.46036,-0.05331 3.460357,-0.05331 0.05314,-3.540948 0.05314,-3.540949 -0.879396,0.09912 c -0.630317,0.07105 -1.022662,0.0053 -1.385207,-0.2323 -0.462293,-0.302907 -0.546055,-0.305055 -0.973518,-0.02497 -0.597974,0.391808 -1.638226,0.392949 -2.195801,0.0024 -0.39288,-0.275183 -0.475287,-0.275183 -0.868168,0 -0.553136,0.387432 -1.78724,0.393924 -2.104978,0.01107 -0.133729,-0.161132 -0.353455,-0.292968 -0.488281,-0.292968 -0.134826,0 -0.354553,0.131836 -0.488282,0.292968 -0.317738,0.38285 -1.551841,0.376358 -2.104978,-0.01107 -0.392881,-0.275183 -0.475287,-0.275183 -0.868168,0 -0.238744,0.167229 -0.746533,0.304049 -1.128416,0.304049 -0.381883,0 -0.889672,-0.13682 -1.128416,-0.304043 -0.392881,-0.275184 -0.475287,-0.275184 -0.868168,0 -0.553137,0.387432 -1.78724,0.393924 -2.104979,0.01107 -0.314759,-0.379263 -0.667961,-0.371842 -0.993896,0.02089 -0.195381,0.235418 -0.494221,0.291394 -1.195789,0.223982 l -0.935301,-0.08986 v 3.58461 3.584611 h 3.411573 3.411572 z m -23.437302,-0.683592 0.05503,-2.294922 3.466797,-0.05333 3.466797,-0.05334 v 2.348258 2.348255 h 3.613281 3.613281 v -3.517294 -3.517293 l -10.693359,0.0505 -10.693359,0.0505 -0.05333,3.466798 -0.05334,3.466795 h 3.61159 3.611589 z M 78.354069,28.70821 c 0.325522,-0.32552 0.390625,-0.651041 0.390625,-1.953125 v -1.5625 h -1.171875 -1.171875 v 1.59595 c 0,1.210961 0.07798,1.682109 0.323241,1.953125 0.424215,0.468752 1.142422,0.454013 1.629884,-0.03345 z m 2.963137,0.06739 c 0.29167,-0.263957 0.357176,-0.622164 0.357176,-1.953125 V 25.19259 h -1.171875 -1.171875 v 1.380028 c 0,1.327455 0.2081,2.072332 0.664004,2.376748 0.363078,0.242433 0.947525,0.165646 1.32257,-0.173766 z m 3.091551,-0.06739 c 0.325521,-0.32552 0.390625,-0.651041 0.390625,-1.953125 v -1.5625 h -1.171875 -1.171875 v 1.5625 c 0,1.302084 0.0651,1.627605 0.390625,1.953125 0.214844,0.214844 0.566406,0.390625 0.78125,0.390625 0.214844,0 0.566406,-0.175781 0.78125,-0.390625 z m 3.038842,0.113405 c 0.31317,-0.228994 0.391109,-0.568783 0.447998,-1.953125 l 0.06887,-1.675905 h -1.191916 -1.191918 v 1.59595 c 0,1.210961 0.07797,1.682109 0.32324,1.953125 0.386819,0.427429 1.023428,0.460402 1.543727,0.07996 z m 3.049295,-0.04602 c 0.29167,-0.263958 0.357175,-0.622165 0.357175,-1.953125 v -1.629886 h -1.171875 -1.171875 v 1.5625 c 0,1.302084 0.0651,1.627605 0.390625,1.953125 0.474961,0.474961 1.11569,0.502014 1.59595,0.06739 z m 3.09155,-0.06739 c 0.325522,-0.325521 0.390625,-0.651041 0.390625,-1.953125 v -1.5625 h -1.171875 -1.171875 v 1.649082 c 0,1.482704 0.0438,1.679756 0.434084,1.953125 0.584235,0.409213 1.049782,0.382677 1.519041,-0.08658 z m 3.045358,-0.0199 c 0.282553,-0.312217 0.388299,-0.779943 0.441576,-1.953125 l 0.07005,-1.542596 h -1.310893 -1.310892 l 0.07005,1.542596 c 0.07645,1.683409 0.433555,2.363654 1.24084,2.363654 0.235256,0 0.594926,-0.184738 0.799264,-0.410529 z M 74.057194,19.13623 V 9.759563 l -10.693359,0.0505 -10.693359,0.0505 -0.05089,9.08203 c -0.02799,4.995118 -0.0088,9.191896 0.0427,9.326172 0.07329,0.191184 2.403847,0.244141 10.744252,0.244141 h 10.650656 z m 23.000791,-0.82841 0.05157,-6.201171 H 86.755251 76.400944 v 6.251726 6.251726 l 10.302735,-0.05055 10.302734,-0.05056 z m 0.827334,-7.667614 V 9.7597 l -11.18164,0.05043 -11.181641,0.05043 -0.06339,0.553608 c -0.134719,1.176489 -0.848176,1.106548 11.287732,1.106548 H 97.885321 Z M 74.99563,8.151571 75.05516,7.223836 H 63.423365 51.791569 v 0.978112 0.978111 l 11.572266,-0.05038 11.572266,-0.05038 z"
       id="path5819"
       inkscape:connector-curvature="0" />
    <path
       style="fill:#ffffff;fill-opacity:1;stroke:none;stroke-width:0.148;stroke-linecap:round;stroke-linejoin:miter;stroke-miterlimit:4;stroke-dasharray:none;stroke-opacity:1;paint-order:fill markers stroke"
       d="m 79.179022,18.119642 0.05395,-2.985649 h 1.855468 1.855469 v 2.929686 2.929688 l -1.909422,0.05596 -1.909423,0.05596 z m 3.081297,0.04169 v -2.343749 h -1.269531 -1.269531 v 2.343749 2.34375 h 1.269531 1.269531 z"
       id="path5821"
       inkscape:connector-curvature="0" />
    <path
       style="fill:#ffffff;fill-opacity:1;stroke:none;stroke-width:0.148;stroke-linecap:round;stroke-linejoin:miter;stroke-miterlimit:4;stroke-dasharray:none;stroke-opacity:1;paint-order:fill markers stroke"
       d="m 67.221257,22.842003 v -2.545894 l 2.001953,0.05566 2.001953,0.05566 0.05466,2.490234 0.05466,2.490234 h -2.056609 -2.056617 z m 3.320312,0.0068 v -1.953125 h -1.269531 -1.269531 v 1.953125 1.953125 h 1.269531 1.269531 z"
       id="path5823"
       inkscape:connector-curvature="0" />
    <path
       style="fill:#ffffff;fill-opacity:1;stroke:none;stroke-width:0.148;stroke-linecap:round;stroke-linejoin:miter;stroke-miterlimit:4;stroke-dasharray:none;stroke-opacity:1;paint-order:fill markers stroke"
       d="m 67.221257,15.259379 c 0,-2.122295 0.04927,-2.543907 0.308943,-2.643552 0.455943,-0.174962 3.263684,-0.138368 3.554758,0.04633 0.186795,0.118528 0.236419,0.77529 0.195313,2.584899 l -0.05511,2.425998 -2.001953,0.05566 -2.001953,0.05566 z m 3.320312,-0.125385 v -1.855469 h -1.269531 -1.269531 v 1.855469 1.855466 h 1.269531 1.269531 z"
       id="path5825"
       inkscape:connector-curvature="0" />
    <path
       style="fill:#ffffff;fill-opacity:1;stroke:none;stroke-width:0.148;stroke-linecap:round;stroke-linejoin:miter;stroke-miterlimit:4;stroke-dasharray:none;stroke-opacity:1;paint-order:fill markers stroke"
       d="m 61.404993,15.189718 0.05454,-2.594787 1.561845,-0.05791 c 2.606502,-0.09664 2.462914,-0.255313 2.39903,2.650978 l -0.05462,2.485057 -2.00767,0.05572 -2.00767,0.05572 z m 3.277201,-0.05572 v -1.855469 h -1.269531 -1.269531 v 1.855469 1.855466 h 1.269531 1.269531 z"
       id="path5827"
       inkscape:connector-curvature="0" />
    <path
       style="fill:#ffffff;fill-opacity:1;stroke:none;stroke-width:0.148;stroke-linecap:round;stroke-linejoin:miter;stroke-miterlimit:4;stroke-dasharray:none;stroke-opacity:1;paint-order:fill markers stroke"
       d="m 55.545618,15.189718 0.05454,-2.594787 1.776969,-0.05577 c 1.353556,-0.04248 1.832098,0.01066 2.008334,0.223013 0.157052,0.189236 0.213633,1.022681 0.176156,2.594827 l -0.05521,2.316048 -2.00767,0.05572 -2.00767,0.05572 z m 3.277201,-0.06465 v -1.864393 l -1.318359,0.05775 -1.318359,0.05775 -0.05616,1.806641 -0.05616,1.806638 h 1.374517 1.374516 z"
       id="path5829"
       inkscape:connector-curvature="0" />
    <path
       style="fill:#ffffff;fill-opacity:1;stroke:none;stroke-width:0.148;stroke-linecap:round;stroke-linejoin:miter;stroke-miterlimit:4;stroke-dasharray:none;stroke-opacity:1;paint-order:fill markers stroke"
       d="m 55.502507,22.848835 v -2.552727 l 2.001953,0.05566 2.001953,0.05566 v 2.441406 2.441407 l -2.001953,0.05566 -2.001953,0.05566 z m 3.278557,0.04883 -0.0559,-1.904297 h -1.269531 -1.269531 l -0.05725,1.64383 c -0.03149,0.904106 -0.01228,1.761041 0.0427,1.904297 0.06926,0.180495 0.49379,0.260466 1.382684,0.260466 h 1.282734 z"
       id="path5831"
       inkscape:connector-curvature="0" />
    <path
       style="fill:#ffffff;fill-opacity:1;stroke:none;stroke-width:0.148;stroke-linecap:round;stroke-linejoin:miter;stroke-miterlimit:4;stroke-dasharray:none;stroke-opacity:1;paint-order:fill markers stroke"
       d="m 61.361882,22.848835 v -2.552727 l 2.001953,0.05566 2.001953,0.05566 v 2.441406 2.441407 l -2.001953,0.05566 -2.001953,0.05566 z m 3.320312,0 V 20.89571 h -1.269531 -1.269531 v 1.953125 1.953125 h 1.269531 1.269531 z"
       id="path5833"
       inkscape:connector-curvature="0" />
    <path
       style="fill:#ffffff;fill-opacity:1;stroke:none;stroke-width:0.148;stroke-linecap:round;stroke-linejoin:miter;stroke-miterlimit:4;stroke-dasharray:none;stroke-opacity:1;paint-order:fill markers stroke"
       d="M 40.268132,28.317585 V 25.58321 h 1.757812 1.757813 v 2.734375 2.734375 h -1.757813 -1.757812 z m 1.464844,1.269533 c 0,-0.864032 -0.05064,-0.983755 -0.439453,-1.038976 -0.411155,-0.05839 -0.439454,0.0085 -0.439454,1.038976 0,1.030463 0.0283,1.097367 0.439454,1.038973 0.388813,-0.05522 0.439453,-0.174944 0.439453,-1.038973 z m 1.464843,0 c 0,-1.015625 -0.02663,-1.074219 -0.488281,-1.074219 -0.461647,0 -0.488281,0.05859 -0.488281,1.074219 0,1.015625 0.02663,1.074217 0.488281,1.074217 0.461648,0 0.488281,-0.05859 0.488281,-1.074217 z m -1.464843,-2.539063 c 0,-0.86403 -0.05064,-0.983754 -0.439453,-1.038975 -0.411155,-0.05839 -0.439454,0.0085 -0.439454,1.038975 0,1.030464 0.0283,1.097368 0.439454,1.038975 0.388813,-0.05522 0.439453,-0.174944 0.439453,-1.038975 z m 1.464843,-0.01358 c 0,-1.016377 -0.02886,-1.083705 -0.439453,-1.025391 -0.35556,0.0505 -0.451259,0.206154 -0.501296,0.815373 -0.0801,0.975195 0.05514,1.297821 0.543995,1.297821 0.351307,0 0.396754,-0.124606 0.396754,-1.087803 z"
       id="path5835"
       inkscape:connector-curvature="0" />
    <path
       style="fill:#ffffff;fill-opacity:1;stroke:none;stroke-width:0.148;stroke-linecap:round;stroke-linejoin:miter;stroke-miterlimit:4;stroke-dasharray:none;stroke-opacity:1;paint-order:fill markers stroke"
       d="m 38.586827,28.317585 c 0,-1.450195 0.03075,-2.043457 0.06833,-1.318359 0.03758,0.725098 0.03758,1.911621 0,2.636719 -0.03758,0.725097 -0.06833,0.131836 -0.06833,-1.31836 z"
       id="path5837"
       inkscape:connector-curvature="0" />
    <path
       style="fill:#ffffff;fill-opacity:1;stroke:none;stroke-width:0.148;stroke-linecap:round;stroke-linejoin:miter;stroke-miterlimit:4;stroke-dasharray:none;stroke-opacity:1;paint-order:fill markers stroke"
       d="m 35.238835,31.117922 c -0.178771,-0.07214 -0.244141,-0.820703 -0.244141,-2.795716 0,-3.084961 -0.09258,-2.936072 1.822615,-2.931317 1.814128,0.0045 1.790667,-0.03384 1.790667,2.926696 0,2.057091 -0.05694,2.589303 -0.292969,2.738509 -0.301433,0.190548 -2.640651,0.237564 -3.076172,0.06183 z m 1.318359,-1.530804 c 0,-1.015625 -0.02663,-1.074219 -0.488281,-1.074219 -0.461648,0 -0.488281,0.05859 -0.488281,1.074219 0,1.015625 0.02663,1.074217 0.488281,1.074217 0.461648,0 0.488281,-0.05859 0.488281,-1.074217 z m 1.367188,0 c 0,-0.944011 -0.04735,-1.074219 -0.390625,-1.074219 -0.343277,0 -0.390625,0.130208 -0.390625,1.074219 0,0.944009 0.04735,1.074217 0.390625,1.074217 0.343276,0 0.390625,-0.130208 0.390625,-1.074217 z m -1.367188,-2.539063 c 0,-1.015625 -0.02663,-1.074219 -0.488281,-1.074219 -0.461648,0 -0.488281,0.05859 -0.488281,1.074219 0,1.015625 0.02663,1.074219 0.488281,1.074219 0.461648,0 0.488281,-0.05859 0.488281,-1.074219 z m 1.367188,0 c 0,-0.94401 -0.04735,-1.074219 -0.390625,-1.074219 -0.343277,0 -0.390625,0.130209 -0.390625,1.074219 0,0.944011 0.04735,1.074219 0.390625,1.074219 0.343276,0 0.390625,-0.130208 0.390625,-1.074219 z"
       id="path5839"
       inkscape:connector-curvature="0" />
    <path
       style="fill:#ffffff;fill-opacity:1;stroke:none;stroke-width:0.148;stroke-linecap:round;stroke-linejoin:miter;stroke-miterlimit:4;stroke-dasharray:none;stroke-opacity:1;paint-order:fill markers stroke"
       d="m 40.311597,36.862507 0.05419,-2.783203 h 1.660157 1.660157 l 0.05419,2.783203 0.05419,2.783203 h -1.768537 -1.768537 z m 1.519035,1.220703 c 0,-0.911458 -0.03255,-0.976562 -0.488281,-0.976562 -0.455729,0 -0.488282,0.0651 -0.488282,0.976562 0,0.911459 0.03255,0.976563 0.488282,0.976563 0.455729,0 0.488281,-0.0651 0.488281,-0.976563 z m 1.367187,0 c 0,-0.911458 -0.03255,-0.976562 -0.488281,-0.976562 -0.455729,0 -0.488281,0.0651 -0.488281,0.976562 0,0.911459 0.03255,0.976563 0.488281,0.976563 0.455729,0 0.488281,-0.0651 0.488281,-0.976563 z m -1.367187,-2.539062 c 0,-0.911458 -0.03255,-0.976563 -0.488281,-0.976563 -0.455729,0 -0.488282,0.06511 -0.488282,0.976563 0,0.911459 0.03255,0.976562 0.488282,0.976562 0.455729,0 0.488281,-0.0651 0.488281,-0.976562 z m 1.367187,0 c 0,-0.911458 -0.03255,-0.976563 -0.488281,-0.976563 -0.455729,0 -0.488281,0.06511 -0.488281,0.976563 0,0.911459 0.03255,0.976562 0.488281,0.976562 0.455729,0 0.488281,-0.0651 0.488281,-0.976562 z"
       id="path5841"
       inkscape:connector-curvature="0" />
    <path
       style="fill:#ffffff;fill-opacity:1;stroke:none;stroke-width:0.148;stroke-linecap:round;stroke-linejoin:miter;stroke-miterlimit:4;stroke-dasharray:none;stroke-opacity:1;paint-order:fill markers stroke"
       d="M 45.346257,28.317585 V 25.58321 h 1.757812 1.757813 v 2.734375 2.734375 h -1.757813 -1.757812 z m 1.5625,1.269533 c 0,-1.015625 -0.02663,-1.074219 -0.488281,-1.074219 -0.461648,0 -0.488282,0.05859 -0.488282,1.074219 0,1.015625 0.02663,1.074217 0.488282,1.074217 0.461647,0 0.488281,-0.05859 0.488281,-1.074217 z m 1.367187,-0.01358 c 0,-1.016376 -0.02886,-1.083704 -0.439453,-1.02539 -0.35556,0.0505 -0.451259,0.206154 -0.501296,0.815373 -0.0801,0.975194 0.05514,1.297819 0.543995,1.297819 0.351307,0 0.396754,-0.124606 0.396754,-1.087802 z m -1.367187,-2.525479 c 0,-1.015625 -0.02663,-1.074219 -0.488281,-1.074219 -0.461648,0 -0.488282,0.05859 -0.488282,1.074219 0,1.015625 0.02663,1.074219 0.488282,1.074219 0.461647,0 0.488281,-0.05859 0.488281,-1.074219 z m 1.367187,-0.01358 c 0,-1.016376 -0.02886,-1.083705 -0.439453,-1.025391 -0.35556,0.0505 -0.451259,0.206154 -0.501296,0.815374 -0.0801,0.975195 0.05514,1.29782 0.543995,1.29782 0.351307,0 0.396754,-0.124606 0.396754,-1.087803 z"
       id="path5843"
       inkscape:connector-curvature="0" />
    <path
       style="fill:#ffffff;fill-opacity:1;stroke:none;stroke-width:0.148;stroke-linecap:round;stroke-linejoin:miter;stroke-miterlimit:4;stroke-dasharray:none;stroke-opacity:1;paint-order:fill markers stroke"
       d="m 45.346257,36.821283 v -2.839635 h 1.656435 c 1.991029,0 1.899774,-0.161755 1.818096,3.222656 l -0.05656,2.34375 -1.708985,0.05643 -1.708984,0.05643 z m 1.367187,1.261927 c 0,-0.911458 -0.03255,-0.976562 -0.488281,-0.976562 -0.455729,0 -0.488281,0.0651 -0.488281,0.976562 0,0.911459 0.03255,0.976563 0.488281,0.976563 0.455729,0 0.488281,-0.0651 0.488281,-0.976563 z m 1.5625,0 c 0,-0.911458 -0.03255,-0.976562 -0.488281,-0.976562 -0.455729,0 -0.488281,0.0651 -0.488281,0.976562 0,0.911459 0.03255,0.976563 0.488281,0.976563 0.455729,0 0.488281,-0.0651 0.488281,-0.976563 z m -1.5625,-2.539062 c 0,-0.911458 -0.03255,-0.976563 -0.488281,-0.976563 -0.455729,0 -0.488281,0.06511 -0.488281,0.976563 0,0.911459 0.03255,0.976562 0.488281,0.976562 0.455729,0 0.488281,-0.0651 0.488281,-0.976562 z m 1.5625,0 c 0,-0.911458 -0.03255,-0.976563 -0.488281,-0.976563 -0.455729,0 -0.488281,0.06511 -0.488281,0.976563 0,0.911459 0.03255,0.976562 0.488281,0.976562 0.455729,0 0.488281,-0.0651 0.488281,-0.976562 z"
       id="path5845"
       inkscape:connector-curvature="0" />
    <path
       style="fill:#ffffff;fill-opacity:1;stroke:none;stroke-width:0.148;stroke-linecap:round;stroke-linejoin:miter;stroke-miterlimit:4;stroke-dasharray:none;stroke-opacity:1;paint-order:fill markers stroke"
       d="m 24.881206,19.877219 0.05489,-2.399477 h 1.953125 1.953125 v 2.34375 2.34375 l -2.00802,0.05573 -2.00802,0.05573 z m 3.277551,1.116148 v -0.683594 h -1.269531 -1.269532 v 0.683594 0.683593 h 1.269532 1.269531 z m 0,-2.148438 v -0.683594 h -1.269531 -1.269532 v 0.683594 0.683594 h 1.269532 1.269531 z"
       id="path5847"
       inkscape:connector-curvature="0" />
    <path
       style="fill:#ffffff;fill-opacity:1;stroke:none;stroke-width:0.148;stroke-linecap:round;stroke-linejoin:miter;stroke-miterlimit:4;stroke-dasharray:none;stroke-opacity:1;paint-order:fill markers stroke"
       d="m 20.199773,22.314648 c 0.510253,-0.04023 1.345214,-0.04023 1.855468,0 0.510254,0.04023 0.09277,0.07315 -0.927734,0.07315 -1.020508,0 -1.437988,-0.03292 -0.927734,-0.07315 z"
       id="path5849"
       inkscape:connector-curvature="0" />
    <path
       style="fill:#ffffff;fill-opacity:1;stroke:none;stroke-width:0.148;stroke-linecap:round;stroke-linejoin:miter;stroke-miterlimit:4;stroke-dasharray:none;stroke-opacity:1;paint-order:fill markers stroke"
       d="m 19.662663,22.275765 -0.585937,-0.114359 v -2.341831 -2.341833 h 1.953125 1.953125 l 0.05484,2.392578 c 0.05431,2.369396 0.05052,2.392856 -0.390625,2.421307 -1.405158,0.09062 -2.46789,0.08497 -2.984527,-0.01586 z m 2.795578,-1.331226 0.0612,-0.634766 h -1.379562 -1.379563 v 0.692518 0.692517 l 1.31836,-0.05775 1.318359,-0.05775 z m 0.03645,-2.09961 v -0.683594 h -1.367187 -1.367188 v 0.683594 0.683594 h 1.367188 1.367187 z"
       id="path5851"
       inkscape:connector-curvature="0" />
    <path
       style="fill:#ffffff;fill-opacity:1;stroke:none;stroke-width:0.148;stroke-linecap:round;stroke-linejoin:miter;stroke-miterlimit:4;stroke-dasharray:none;stroke-opacity:1;paint-order:fill markers stroke"
       d="m 19.109278,30.140502 c -0.07162,-0.07161 -0.130209,-1.124628 -0.130209,-2.340029 0,-2.585363 -0.120929,-2.467862 2.442062,-2.37283 l 1.561845,0.05791 0.05484,2.392578 0.05484,2.392578 h -1.926584 c -1.059622,0 -1.985179,-0.05859 -2.056793,-0.130208 z m 3.348963,-1.188151 0.0612,-0.634766 h -1.379562 -1.379563 v 0.692518 0.692518 l 1.31836,-0.05775 1.318359,-0.05775 z m 0.03645,-2.099609 v -0.683594 h -1.367187 -1.367188 v 0.683594 0.683593 h 1.367188 1.367187 z"
       id="path5853"
       inkscape:connector-curvature="0" />
    <path
       style="fill:#ffffff;fill-opacity:1;stroke:none;stroke-width:0.148;stroke-linecap:round;stroke-linejoin:miter;stroke-miterlimit:4;stroke-dasharray:none;stroke-opacity:1;paint-order:fill markers stroke"
       d="m 20.492741,34.426298 c 0.349121,-0.04333 0.92041,-0.04333 1.269532,0 0.349121,0.04333 0.06348,0.07877 -0.634766,0.07877 -0.698242,0 -0.983887,-0.03545 -0.634766,-0.07877 z"
       id="path5855"
       inkscape:connector-curvature="0" />
    <path
       style="fill:#ffffff;fill-opacity:1;stroke:none;stroke-width:0.148;stroke-linecap:round;stroke-linejoin:miter;stroke-miterlimit:4;stroke-dasharray:none;stroke-opacity:1;paint-order:fill markers stroke"
       d="m 19.109278,38.343627 c -0.07162,-0.07161 -0.130209,-1.124628 -0.130209,-2.340029 0,-2.585363 -0.120929,-2.467862 2.442062,-2.37283 l 1.561845,0.05791 0.05484,2.392578 0.05484,2.392578 h -1.926584 c -1.059622,0 -1.985179,-0.05859 -2.056793,-0.130208 z m 3.348963,-1.188151 0.0612,-0.634766 h -1.379562 -1.379563 v 0.692518 0.692518 l 1.31836,-0.05775 1.318359,-0.05775 z m 0.03645,-2.059398 v -0.643381 h -1.367187 -1.367188 v 0.643381 0.643382 h 1.367188 1.367187 z"
       id="path5857"
       inkscape:connector-curvature="0" />
    <path
       style="fill:#ffffff;fill-opacity:1;stroke:none;stroke-width:0.148;stroke-linecap:round;stroke-linejoin:miter;stroke-miterlimit:4;stroke-dasharray:none;stroke-opacity:1;paint-order:fill markers stroke"
       d="m 24.881261,36.081257 0.05484,-2.392578 h 1.953125 1.953125 l 0.05484,2.392578 0.05484,2.392578 h -2.062804 -2.062805 z m 3.277496,1.123047 V 36.52071 h -1.269531 -1.269532 v 0.683594 0.683594 h 1.269532 1.269531 z m 0,-2.148437 v -0.683594 h -1.269531 -1.269532 v 0.683594 0.683593 h 1.269532 1.269531 z"
       id="path5859"
       inkscape:connector-curvature="0" />
    <path
       style="fill:#ffffff;fill-opacity:1;stroke:none;stroke-width:0.148;stroke-linecap:round;stroke-linejoin:miter;stroke-miterlimit:4;stroke-dasharray:none;stroke-opacity:1;paint-order:fill markers stroke"
       d="m 24.881261,27.878132 0.05484,-2.392578 h 1.953125 1.953125 l 0.05484,2.392578 0.05484,2.392578 h -2.062804 -2.062805 z m 3.277496,1.123047 v -0.683594 h -1.269531 -1.269532 v 0.683594 0.683594 h 1.269532 1.269531 z m 0,-2.148437 v -0.683594 h -1.269531 -1.269532 v 0.683594 0.683593 h 1.269532 1.269531 z"
       id="path5861"
       inkscape:connector-curvature="0" />
    <path
       style="fill:#ffffff;fill-opacity:1;stroke:none;stroke-width:0.148;stroke-linecap:round;stroke-linejoin:miter;stroke-miterlimit:4;stroke-dasharray:none;stroke-opacity:1;paint-order:fill markers stroke"
       d="m 4.373449,27.878132 0.05484,-2.392578 h 1.953125 1.9531246 l 0.05484,2.392578 0.05484,2.392578 H 6.381413 4.318609 Z m 3.277495,1.123047 V 28.317585 H 6.381413 5.111882 v 0.683594 0.683594 h 1.269531 1.269531 z m 0,-2.148437 V 26.169148 H 6.381413 5.111882 v 0.683594 0.683593 h 1.269531 1.269531 z"
       id="path5863"
       inkscape:connector-curvature="0" />
    <path
       style="fill:#ffffff;fill-opacity:1;stroke:none;stroke-width:0.148;stroke-linecap:round;stroke-linejoin:miter;stroke-miterlimit:4;stroke-dasharray:none;stroke-opacity:1;paint-order:fill markers stroke"
       d="m 10.232768,27.885032 0.0549,-2.399478 1.776969,-0.05577 c 1.355028,-0.04252 1.83201,0.01056 2.00877,0.223539 0.155737,0.187652 0.213541,0.975033 0.176156,2.399515 l -0.05565,2.120211 -2.00802,0.05573 -2.00802,0.05573 z m 3.277551,1.116148 v -0.683594 h -1.367187 -1.367188 v 0.553386 c 0,0.304362 0.05859,0.611979 0.130209,0.683594 0.07161,0.07161 0.686849,0.130208 1.367187,0.130208 h 1.236979 z m 0,-2.148437 v -0.683594 h -1.269531 -1.269531 v 0.683594 0.683592 h 1.269531 1.269531 z"
       id="path5865"
       inkscape:connector-curvature="0" />
    <path
       style="fill:#ffffff;fill-opacity:1;stroke:none;stroke-width:0.148;stroke-linecap:round;stroke-linejoin:miter;stroke-miterlimit:4;stroke-dasharray:none;stroke-opacity:1;paint-order:fill markers stroke"
       d="m 84.843084,18.119642 0.05395,-2.985649 1.462544,-0.05832 c 2.520594,-0.100517 2.365296,-0.305692 2.302414,3.041863 l -0.05402,2.875835 -1.909423,0.05596 -1.909422,0.05596 z m 3.081298,0.04169 v -2.343749 h -1.269531 -1.269532 v 2.343749 2.34375 h 1.269532 1.269531 z"
       id="path5867"
       inkscape:connector-curvature="0" />
    <path
       style="fill:#ffffff;fill-opacity:1;stroke:none;stroke-width:0.148;stroke-linecap:round;stroke-linejoin:miter;stroke-miterlimit:4;stroke-dasharray:none;stroke-opacity:1;paint-order:fill markers stroke"
       d="m 90.507147,18.119642 0.05395,-2.985649 1.67912,-0.056 c 1.267575,-0.04227 1.735696,0.01217 1.909952,0.222139 0.15931,0.191957 0.21395,1.117044 0.176348,2.985682 l -0.05448,2.707549 -1.909422,0.05596 -1.909423,0.05596 z m 3.081297,0.04169 v -2.343749 h -1.269531 -1.269531 v 2.343749 2.34375 h 1.269531 1.269531 z"
       id="path5869"
       inkscape:connector-curvature="0" />
  </g>
</svg>
